<?xml version="1.0" encoding="UTF-8" ?>
<!DOCTYPE svg PUBLIC "-//W3C//DTD SVG 1.1//EN" "http://www.w3.org/Graphics/SVG/1.1/DTD/svg11.dtd">
<svg width="800pt" height="600pt" viewBox="0 0 800 600" version="1.1" xmlns="http://www.w3.org/2000/svg">
<path fill="#ffffff" d=" M 0.00 0.00 L 800.00 0.00 L 800.00 600.00 L 0.00 600.00 L 0.00 0.00 Z" />
<path fill="#252221" d=" M 297.21 120.13 C 300.80 116.36 306.69 115.49 311.43 117.46 C 317.27 119.87 321.96 124.30 326.44 128.62 C 337.14 139.75 346.28 152.26 354.69 165.18 C 359.11 152.41 363.51 139.38 371.17 128.12 C 374.39 123.62 378.93 118.77 384.94 119.05 C 391.12 119.69 394.86 125.44 397.80 130.31 C 403.89 141.48 408.07 153.61 411.45 165.85 C 437.45 169.39 462.80 179.26 483.42 195.63 C 518.71 223.27 538.94 267.12 542.36 311.32 C 550.46 318.54 561.06 323.12 572.00 323.03 C 581.25 323.28 590.63 319.65 597.00 312.88 C 605.16 304.69 608.77 291.89 605.15 280.79 C 601.41 269.40 588.67 261.66 576.85 264.30 C 567.06 266.25 560.01 277.28 563.17 286.92 C 565.04 292.67 571.09 296.46 577.09 295.80 C 581.47 295.60 585.60 299.48 585.29 303.94 C 585.48 307.66 582.62 311.17 578.99 311.89 C 566.16 313.76 552.79 305.78 548.22 293.67 C 542.44 278.88 549.01 260.78 562.59 252.71 C 579.26 242.34 602.80 248.20 614.26 263.67 C 621.88 273.28 624.20 286.24 622.12 298.15 C 619.56 313.58 609.16 327.44 595.08 334.23 C 578.61 342.26 558.34 340.46 542.59 331.54 C 541.54 348.05 538.13 364.58 530.77 379.49 C 520.60 400.71 503.32 417.99 483.25 429.98 C 485.71 436.09 490.08 442.23 496.86 443.78 C 506.30 445.68 515.71 442.18 524.24 438.45 C 527.21 444.95 530.32 451.40 533.18 457.96 C 519.22 464.33 502.86 468.75 487.84 463.45 C 476.77 459.64 468.63 450.26 464.10 439.73 C 451.90 444.95 439.16 448.83 426.20 451.67 C 428.79 456.91 434.00 460.31 439.59 461.60 C 445.66 463.11 451.97 463.24 458.18 462.81 C 458.57 469.68 459.16 476.53 459.48 483.40 C 447.32 483.96 434.52 483.31 423.59 477.39 C 414.95 472.77 408.46 464.58 405.70 455.20 C 388.20 457.63 370.48 458.19 352.84 457.68 C 328.55 456.62 304.20 451.98 281.94 441.99 C 262.08 433.10 243.94 419.70 231.07 402.01 C 217.38 383.47 210.08 360.77 208.28 337.93 C 197.83 335.56 189.52 327.44 185.08 317.92 C 177.86 302.56 178.98 283.45 188.31 269.20 C 184.59 267.19 180.81 265.29 177.06 263.33 C 181.81 254.57 186.32 245.68 191.07 236.92 C 201.22 244.51 211.47 251.98 221.56 259.65 C 234.75 230.62 257.50 206.34 285.00 190.36 C 284.81 173.49 285.12 156.48 288.44 139.89 C 290.04 132.86 292.03 125.43 297.21 120.13 Z" />
<path fill="#b9bbbb" d=" M 304.50 128.42 C 305.52 127.45 306.63 127.33 307.83 128.05 C 311.95 130.03 315.28 133.30 318.54 136.45 C 329.05 147.50 338.15 159.85 346.28 172.73 C 348.16 175.61 346.22 179.08 344.37 181.44 C 339.06 188.09 331.16 192.28 323.05 194.49 C 314.93 196.71 305.69 196.28 298.51 191.55 C 297.31 190.64 295.39 189.90 296.02 188.04 C 303.15 186.13 310.48 183.14 314.98 176.98 C 319.56 170.57 321.91 162.04 319.47 154.35 C 316.72 144.64 311.25 135.86 304.50 128.42 Z" />
<path fill="#b9bbbb" d=" M 383.02 128.23 C 384.07 128.10 385.19 127.95 385.85 128.99 C 389.55 133.00 391.87 138.03 394.11 142.95 C 398.04 152.08 401.17 161.55 403.73 171.16 C 405.26 175.64 400.37 178.47 396.98 180.06 C 385.50 185.22 369.46 183.98 361.85 172.93 C 361.89 172.35 361.98 171.17 362.03 170.58 L 362.33 170.70 C 373.77 174.28 386.86 164.87 387.95 153.05 C 388.65 144.52 386.47 135.99 383.02 128.23 Z" />
<path fill="#ffffff" d=" M 298.40 146.86 C 299.56 140.49 300.72 133.84 304.50 128.42 C 311.25 135.86 316.72 144.64 319.47 154.35 C 321.91 162.04 319.56 170.57 314.98 176.98 C 310.48 183.14 303.15 186.13 296.02 188.04 C 295.81 174.28 296.26 160.47 298.40 146.86 Z" />
<path fill="#ffffff" d=" M 373.22 142.29 C 375.82 137.19 378.60 131.99 383.02 128.23 C 386.47 135.99 388.65 144.52 387.95 153.05 C 386.86 164.87 373.77 174.28 362.33 170.70 C 365.40 161.03 368.82 151.44 373.22 142.29 Z" />
<path fill="#98cb33" d=" M 411.54 179.15 C 438.27 182.92 464.01 194.61 483.71 213.19 C 510.88 238.66 526.45 275.13 529.25 312.00 C 529.35 316.45 530.12 320.96 529.44 325.39 C 525.38 340.04 518.62 354.08 508.31 365.37 C 504.79 369.33 500.83 372.86 497.11 376.63 C 497.00 376.61 496.77 376.58 496.66 376.56 C 456.25 371.10 413.77 377.34 377.61 396.61 C 366.22 402.68 355.57 410.12 345.96 418.75 C 345.77 418.93 345.39 419.27 345.20 419.45 C 327.34 419.51 309.41 419.11 291.68 416.78 C 310.72 415.26 330.21 410.39 345.62 398.61 C 353.04 393.04 359.23 384.63 359.29 375.02 C 359.98 361.44 348.63 348.23 334.97 347.37 C 329.70 347.01 324.51 349.11 320.72 352.71 C 307.79 364.04 291.17 370.72 274.15 372.53 C 258.62 374.28 242.81 372.47 227.82 368.24 C 224.76 359.92 222.90 351.20 221.79 342.42 C 236.36 341.99 246.61 328.91 250.94 316.13 C 252.16 318.30 253.53 320.40 254.73 322.59 C 259.89 332.38 269.36 339.51 279.60 343.34 C 292.56 348.07 307.51 347.14 319.71 340.67 C 332.58 333.94 342.19 321.28 345.10 307.03 C 348.37 291.45 343.75 274.56 332.85 262.92 C 335.86 261.68 338.87 260.43 341.86 259.14 C 335.46 249.66 328.93 240.27 322.56 230.76 C 296.96 246.24 271.66 262.24 246.13 277.85 C 241.80 274.22 236.56 271.38 232.71 267.38 C 244.66 239.43 266.36 216.09 292.63 200.97 C 303.19 207.88 316.86 208.16 328.61 204.40 C 340.39 200.57 352.16 193.19 357.15 181.36 C 365.01 190.21 377.75 192.99 389.11 191.40 C 397.66 190.20 406.73 186.75 411.54 179.15 Z" />
<path fill="#ffffff" d=" M 283.45 218.57 C 285.13 217.91 287.00 217.78 288.77 218.17 C 290.86 219.59 290.02 222.62 289.40 224.65 C 286.53 231.73 281.34 237.58 275.97 242.89 C 271.00 247.44 265.69 252.01 259.23 254.23 C 257.16 255.10 253.35 255.11 253.25 252.12 C 253.21 246.44 257.16 241.74 260.33 237.37 C 266.76 229.79 274.11 222.39 283.45 218.57 Z" />
<path fill="#252221" d=" M 425.45 254.53 C 432.41 249.06 441.72 244.53 450.65 247.67 C 460.09 251.22 464.55 261.22 468.10 269.93 C 473.03 283.37 475.53 297.68 475.79 311.99 C 475.87 321.56 475.10 331.42 471.25 340.30 C 468.66 346.27 463.96 351.89 457.33 353.31 C 448.02 355.07 438.41 353.88 429.42 351.13 C 419.02 347.15 409.16 341.60 400.82 334.18 C 398.65 332.20 396.50 330.13 395.18 327.48 C 396.60 328.00 398.06 328.54 399.43 329.22 C 415.76 336.99 433.67 343.05 451.97 342.40 C 456.92 342.67 460.83 338.81 462.40 334.41 C 465.81 325.43 465.90 315.60 465.43 306.13 C 460.12 305.70 454.81 305.10 449.48 304.97 L 447.94 304.89 C 452.58 301.87 457.87 299.99 462.65 297.19 C 463.42 286.54 459.99 276.09 455.19 266.73 C 453.00 262.92 449.89 258.46 445.00 258.48 C 439.28 258.39 434.08 261.36 429.33 264.24 C 415.92 273.02 404.69 284.62 393.84 296.29 C 395.25 291.38 398.13 287.09 400.75 282.77 C 407.63 272.31 415.52 262.28 425.45 254.53 Z" />
<path fill="#679608" d=" M 324.81 266.26 C 327.48 265.12 330.15 264.00 332.85 262.92 C 343.75 274.56 348.37 291.45 345.10 307.03 C 342.19 321.28 332.58 333.94 319.71 340.67 C 307.51 347.14 292.56 348.07 279.60 343.34 C 269.36 339.51 259.89 332.38 254.73 322.59 C 257.60 324.96 259.91 327.93 262.89 330.18 C 273.73 338.80 288.72 341.67 302.05 338.06 C 315.57 334.58 327.06 324.25 332.06 311.22 C 338.00 296.35 335.03 278.56 324.81 266.26 Z" />
<path fill="#ffffff" d=" M 417.56 278.32 C 424.53 271.29 432.61 263.46 443.02 262.75 C 450.63 262.90 454.44 270.73 455.67 277.24 C 453.45 273.78 450.21 270.73 445.94 270.33 C 435.82 269.17 426.42 274.13 417.56 278.32 Z" />
<path fill="#679608" d=" M 371.45 270.64 C 374.05 270.20 377.29 269.52 379.40 271.54 C 380.71 273.89 378.83 276.49 377.21 278.16 C 372.18 282.97 365.71 286.26 358.91 287.69 C 356.63 288.00 353.93 288.52 351.94 287.03 C 349.96 285.34 351.71 282.50 353.01 280.93 C 357.85 275.67 364.56 272.31 371.45 270.64 Z" />
<path fill="#679608" d=" M 468.10 269.93 C 471.10 269.30 473.74 271.28 475.79 273.20 C 479.68 277.16 481.87 282.42 483.49 287.64 C 487.03 299.72 487.76 312.53 486.36 325.02 C 485.23 335.98 483.57 347.29 478.11 357.05 C 475.38 361.73 471.09 366.89 465.04 366.21 C 454.99 365.30 445.86 360.49 437.03 355.97 C 434.50 354.36 431.35 353.51 429.42 351.13 C 438.41 353.88 448.02 355.07 457.33 353.31 C 463.96 351.89 468.66 346.27 471.25 340.30 C 475.10 331.42 475.87 321.56 475.79 311.99 C 475.53 297.68 473.03 283.37 468.10 269.93 Z" />
<path fill="#ffffff" d=" M 283.59 283.31 C 293.76 279.32 303.67 274.62 313.98 271.01 L 314.10 271.85 C 314.55 275.91 315.91 279.83 316.00 283.94 C 316.43 296.65 310.19 309.41 299.80 316.78 C 292.58 322.12 283.52 324.41 274.62 324.28 C 263.79 318.65 256.58 306.59 256.97 294.34 C 259.21 293.47 261.43 292.53 263.61 291.51 C 261.66 298.57 265.85 306.68 273.05 308.55 C 280.10 310.75 288.31 306.26 290.07 299.05 C 291.82 293.06 288.92 286.42 283.59 283.31 Z" />
<path fill="#b9bbbb" d=" M 314.10 271.85 C 326.26 283.00 326.87 303.73 316.13 316.08 C 306.53 328.22 288.11 331.90 274.62 324.28 C 283.52 324.41 292.58 322.12 299.80 316.78 C 310.19 309.41 316.43 296.65 316.00 283.94 C 315.91 279.83 314.55 275.91 314.10 271.85 Z" />
<path fill="#ffffff" d=" M 195.72 279.46 C 196.53 277.69 197.50 276.01 198.56 274.39 C 205.60 278.02 212.62 281.69 219.72 285.22 C 211.94 290.40 211.86 304.05 220.06 308.82 C 224.86 311.46 230.76 307.97 232.43 303.16 C 234.00 299.66 233.68 295.69 233.03 292.01 C 234.15 292.96 236.46 293.13 236.41 294.97 C 236.96 305.85 232.98 317.94 223.60 324.22 C 219.54 323.21 215.29 322.48 211.73 320.16 C 203.47 315.02 198.59 305.82 196.64 296.52 C 195.35 290.96 196.39 285.23 195.73 279.62 L 195.72 279.46 Z" />
<path fill="#b9bbbb" d=" M 195.73 279.62 C 196.39 285.23 195.35 290.96 196.64 296.52 C 198.59 305.82 203.47 315.02 211.73 320.16 C 215.29 322.48 219.54 323.21 223.60 324.22 C 219.82 326.45 215.26 327.93 210.87 326.81 C 203.08 325.20 197.46 318.48 194.56 311.41 C 190.59 301.32 190.52 289.28 195.73 279.62 Z" />
<path fill="#ffffff" d=" M 269.40 292.22 C 271.62 290.41 275.53 292.07 275.51 295.02 C 276.00 297.90 272.62 300.27 270.08 298.93 C 267.40 297.86 266.90 293.79 269.40 292.22 Z" />
<path fill="#ffffff" d=" M 219.50 293.33 C 223.94 292.50 224.26 300.68 219.89 300.55 C 216.61 299.91 216.42 294.41 219.50 293.33 Z" />
<path fill="#679608" d=" M 364.40 294.53 C 369.14 293.95 374.49 293.72 378.63 296.49 C 380.66 297.82 380.03 300.94 378.21 302.18 C 374.20 305.28 368.94 306.22 363.98 306.30 C 360.60 306.30 356.89 306.08 354.10 303.95 C 352.54 302.80 352.57 300.23 353.98 298.98 C 356.73 296.23 360.70 295.22 364.40 294.53 Z" />
<path fill="#679608" d=" M 449.48 304.97 C 454.81 305.10 460.12 305.70 465.43 306.13 C 465.90 315.60 465.81 325.43 462.40 334.41 C 460.83 338.81 456.92 342.67 451.97 342.40 C 433.67 343.05 415.76 336.99 399.43 329.22 C 403.37 329.43 407.10 330.82 410.99 331.36 C 421.08 332.98 431.51 333.75 441.57 331.52 C 445.67 330.59 449.78 328.82 452.54 325.54 C 456.43 320.93 458.37 315.08 459.70 309.29 C 456.29 307.84 452.77 306.68 449.48 304.97 Z" />
<path fill="#679608" d=" M 246.83 306.93 C 248.63 309.77 249.27 313.19 250.94 316.13 C 246.61 328.91 236.36 341.99 221.79 342.42 C 221.64 340.81 221.49 339.20 221.34 337.59 C 235.10 333.58 243.97 320.40 246.83 306.93 Z" />
<path fill="#679608" d=" M 351.41 313.53 C 357.51 313.64 363.24 316.46 368.25 319.77 C 371.24 321.99 374.41 324.47 375.85 328.03 C 376.70 329.91 375.17 332.10 373.13 331.98 C 366.14 332.42 359.60 328.88 354.09 324.92 C 351.31 322.56 347.79 319.92 347.65 315.96 C 347.94 314.15 349.89 313.70 351.41 313.53 Z" />
<path fill="#679608" d=" M 508.31 365.37 C 518.62 354.08 525.38 340.04 529.44 325.39 C 529.67 344.55 525.13 363.98 515.32 380.53 C 509.31 378.97 503.26 377.51 497.11 376.63 C 500.83 372.86 504.79 369.33 508.31 365.37 Z" />
<path fill="#b9bbbb" d=" M 319.04 366.06 C 323.77 363.27 327.62 358.84 333.04 357.31 C 336.40 356.24 339.71 358.11 342.06 360.40 C 334.68 362.47 329.36 368.26 322.68 371.69 C 300.31 384.14 273.99 388.45 248.64 386.17 C 244.99 385.87 241.38 385.10 237.71 385.11 L 237.35 385.58 C 236.69 383.10 235.63 380.75 234.66 378.38 C 262.92 385.22 294.13 381.44 319.04 366.06 Z" />
<path fill="#ffffff" d=" M 322.68 371.69 C 329.36 368.26 334.68 362.47 342.06 360.40 C 343.52 362.19 345.20 363.89 346.09 366.08 C 344.35 372.37 339.93 378.20 333.96 381.01 C 325.34 384.23 315.54 380.19 307.13 384.42 C 300.59 388.14 296.55 395.68 288.89 397.53 C 279.72 399.66 271.89 392.13 262.86 392.22 C 256.94 392.81 252.25 398.28 246.08 397.37 C 240.62 395.95 239.32 389.70 237.71 385.11 C 241.38 385.10 244.99 385.87 248.64 386.17 C 273.99 388.45 300.31 384.14 322.68 371.69 Z" />
<path fill="#ffffff" d=" M 377.61 396.61 C 413.77 377.34 456.25 371.10 496.66 376.56 C 484.20 387.34 469.36 395.04 454.10 401.05 C 423.82 412.68 391.36 417.48 359.09 419.00 C 354.71 419.19 350.28 419.67 345.96 418.75 C 355.57 410.12 366.22 402.68 377.61 396.61 Z" />
<path fill="#b9bbbb" d=" M 496.66 376.56 C 496.77 376.58 497.00 376.61 497.11 376.63 C 503.26 377.51 509.31 378.97 515.32 380.53 C 506.18 396.15 492.66 408.94 477.25 418.28 C 462.98 427.07 447.14 433.03 430.97 437.20 C 408.79 442.75 385.85 445.03 363.01 444.76 C 350.43 444.95 337.84 443.79 325.45 441.61 C 331.27 433.58 337.98 426.24 345.20 419.45 C 345.39 419.27 345.77 418.93 345.96 418.75 C 350.28 419.67 354.71 419.19 359.09 419.00 C 391.36 417.48 423.82 412.68 454.10 401.05 C 469.36 395.04 484.20 387.34 496.66 376.56 Z" />
<path fill="#679608" d=" M 261.93 415.08 C 271.77 416.64 281.74 417.29 291.68 416.78 C 309.41 419.11 327.34 419.51 345.20 419.45 C 337.98 426.24 331.27 433.58 325.45 441.61 C 302.69 437.58 280.49 429.06 261.93 415.08 Z" />
</svg>
